<?xml version="1.0" standalone="no"?><!DOCTYPE svg PUBLIC "-//W3C//DTD SVG 1.1//EN" "http://www.w3.org/Graphics/SVG/1.1/DTD/svg11.dtd"><svg t="1490841732475" class="icon" style="" viewBox="0 0 1024 1024" version="1.1" xmlns="http://www.w3.org/2000/svg" p-id="3439" xmlns:xlink="http://www.w3.org/1999/xlink" width="200" height="200"><defs><style type="text/css"></style></defs><path d="M510.903527 63.898309c-247.235894 0-447.679066 200.445218-447.679066 447.711811 0 247.235894 200.443172 447.681112 447.679066 447.681112 106.847493 0 204.822922-37.547151 281.780665-99.996458l49.785893-47.631834c71.931263-79.43312 116.145254-184.471408 116.145254-300.05282C958.615339 264.343527 758.165004 63.898309 510.903527 63.898309zM446.507892 832.729745c-25.960255 0-46.99636-20.98494-46.99636-46.867424s21.036106-46.866401 46.99636-46.866401c25.946952 0 47.007617 20.983917 47.007617 46.866401S472.454844 832.729745 446.507892 832.729745zM650.171408 832.729745c-25.960255 0-46.997384-20.98494-46.997384-46.867424s21.037129-46.866401 46.997384-46.866401c25.959232 0 46.995337 20.983917 46.995337 46.866401S676.130639 832.729745 650.171408 832.729745zM791.159466 395.369699l-56.730049 176.677908c-4.470825 16.667611-20.559245 30.812773-37.262672 26.347065L415.15993 598.394672l11.755742 46.866401 254.589372 0c17.300015 0 31.335682 13.992689 31.335682 31.244608 0 17.260106-14.035668 31.245631-31.335682 31.245631L415.15993 707.751313c-3.093455 0.830925-6.561439 0.630357-10.105149 0l-5.54325 0c-17.311271 0-31.335682-13.985526-31.335682-31.245631l-71.29272-277.250488c-4.330632-5.362124-7.037277-12.084223-7.037277-19.508309 0-1.934049 0.232291-3.815909 0.566912-5.65172l-14.603603-56.836473-32.958646 0c-17.297968 0-31.321356-13.985526-31.321356-31.244608 0-17.252943 14.024411-31.244608 31.321356-31.244608l46.99636 0c3.119037-0.831948 6.573719-0.62524 10.118452 0l5.555529 0c17.297968 0 31.321356 13.991666 31.321356 31.244608l15.673981 62.489216 394.764925 0c4.022617-1.031493 8.250918-1.147126 12.542664 0 17.311271 0 31.335682 13.985526 31.335682 31.244608 0 1.211595-0.234337 2.365884-0.361227 3.544733C791.828708 387.532197 792.137747 391.682727 791.159466 395.369699z" p-id="3440"></path></svg>