<?xml version="1.0" standalone="no"?><!DOCTYPE svg PUBLIC "-//W3C//DTD SVG 1.1//EN" "http://www.w3.org/Graphics/SVG/1.1/DTD/svg11.dtd"><svg t="1490768958695" class="icon" style="" viewBox="0 0 1024 1024" version="1.1" xmlns="http://www.w3.org/2000/svg" p-id="9571" xmlns:xlink="http://www.w3.org/1999/xlink" width="200" height="200"><defs><style type="text/css"></style></defs><path d="M517.582 96.167c-230.813 0-417.924 187.111-417.924 417.924s187.111 417.924 417.924 417.924 417.924-187.111 417.924-417.924S748.395 96.167 517.582 96.167zM648.997 565.262l-79.991 0L466.159 565.262l-79.991 0c-28.283 0-51.423-23.097-51.423-51.327 0-28.23 23.14-51.327 51.423-51.327l79.991 0 102.847 0 79.991 0c28.283 0 51.424 23.097 51.424 51.327C700.42 542.165 677.28 565.262 648.997 565.262z" p-id="9572"></path></svg>